<mxfile host="app.diagrams.net" modified="2021-03-13T00:32:31.046Z" agent="5.0 (Windows NT 10.0; Win64; x64) AppleWebKit/537.36 (KHTML, like Gecko) Chrome/89.0.4389.82 Safari/537.36" etag="00V1kpv1tYYVKbZHGZaa" version="14.4.4" type="github" pages="3">
  <diagram id="6a731a19-8d31-9384-78a2-239565b7b9f0" name="Multiplicação ">
    <mxGraphModel dx="1038" dy="580" grid="1" gridSize="10" guides="1" tooltips="1" connect="1" arrows="1" fold="1" page="1" pageScale="1" pageWidth="1169" pageHeight="827" background="#ffffff" math="0" shadow="0">
      <root>
        <mxCell id="0" />
        <mxCell id="1" parent="0" />
        <mxCell id="a5Fn9PMn-RLcfdS0vtMO-55" value="Inicio&amp;nbsp;" style="shape=mxgraph.flowchart.terminator;strokeWidth=2;gradientColor=none;gradientDirection=north;fontStyle=0;html=1;" vertex="1" parent="1">
          <mxGeometry x="420" y="50" width="120" height="30" as="geometry" />
        </mxCell>
        <mxCell id="a5Fn9PMn-RLcfdS0vtMO-56" value="N1, N2" style="shape=mxgraph.flowchart.data;strokeWidth=2;gradientColor=none;gradientDirection=north;fontStyle=0;html=1;" vertex="1" parent="1">
          <mxGeometry x="400.5" y="120" width="159" height="80" as="geometry" />
        </mxCell>
        <mxCell id="a5Fn9PMn-RLcfdS0vtMO-57" style="fontStyle=1;strokeColor=#003366;strokeWidth=1;html=1;" edge="1" parent="1" source="a5Fn9PMn-RLcfdS0vtMO-55" target="a5Fn9PMn-RLcfdS0vtMO-56">
          <mxGeometry relative="1" as="geometry" />
        </mxCell>
        <mxCell id="a5Fn9PMn-RLcfdS0vtMO-58" style="fontStyle=1;strokeColor=#003366;strokeWidth=1;html=1;" edge="1" parent="1" source="a5Fn9PMn-RLcfdS0vtMO-56">
          <mxGeometry relative="1" as="geometry">
            <mxPoint x="480" y="240" as="targetPoint" />
          </mxGeometry>
        </mxCell>
        <mxCell id="a5Fn9PMn-RLcfdS0vtMO-59" value="" style="edgeStyle=orthogonalEdgeStyle;rounded=0;orthogonalLoop=1;jettySize=auto;html=1;exitX=0.5;exitY=0.9;exitDx=0;exitDy=0;exitPerimeter=0;" edge="1" parent="1" source="a5Fn9PMn-RLcfdS0vtMO-60" target="a5Fn9PMn-RLcfdS0vtMO-61">
          <mxGeometry relative="1" as="geometry" />
        </mxCell>
        <mxCell id="a5Fn9PMn-RLcfdS0vtMO-60" value="M" style="shape=mxgraph.flowchart.document;strokeWidth=2;gradientColor=none;gradientDirection=north;fontStyle=0;html=1;" vertex="1" parent="1">
          <mxGeometry x="400.5" y="340" width="159" height="90" as="geometry" />
        </mxCell>
        <mxCell id="a5Fn9PMn-RLcfdS0vtMO-61" value="Fim" style="shape=mxgraph.flowchart.terminator;strokeWidth=2;gradientColor=none;gradientDirection=north;fontStyle=0;html=1;" vertex="1" parent="1">
          <mxGeometry x="420" y="480" width="120" height="30" as="geometry" />
        </mxCell>
        <mxCell id="a5Fn9PMn-RLcfdS0vtMO-62" value="" style="edgeStyle=orthogonalEdgeStyle;rounded=0;orthogonalLoop=1;jettySize=auto;html=1;" edge="1" parent="1" source="a5Fn9PMn-RLcfdS0vtMO-63" target="a5Fn9PMn-RLcfdS0vtMO-60">
          <mxGeometry relative="1" as="geometry" />
        </mxCell>
        <mxCell id="a5Fn9PMn-RLcfdS0vtMO-63" value="M = N1 * N2" style="rounded=0;whiteSpace=wrap;html=1;" vertex="1" parent="1">
          <mxGeometry x="400" y="240" width="160" height="60" as="geometry" />
        </mxCell>
        <mxCell id="a5Fn9PMn-RLcfdS0vtMO-64" value="Minha primeira multiplicação no Fluxograma" style="text;html=1;strokeColor=none;fillColor=none;align=center;verticalAlign=middle;whiteSpace=wrap;rounded=0;" vertex="1" parent="1">
          <mxGeometry x="350" y="10" width="260" height="20" as="geometry" />
        </mxCell>
      </root>
    </mxGraphModel>
  </diagram>
  <diagram id="QToCChp_9GCAbQACtDrp" name="Divisão ">
    <mxGraphModel dx="1038" dy="580" grid="1" gridSize="10" guides="1" tooltips="1" connect="1" arrows="1" fold="1" page="1" pageScale="1" pageWidth="827" pageHeight="1169" math="0" shadow="0">
      <root>
        <mxCell id="tLhoaPh2_ZiGkgjiTlhg-0" />
        <mxCell id="tLhoaPh2_ZiGkgjiTlhg-1" parent="tLhoaPh2_ZiGkgjiTlhg-0" />
        <mxCell id="tLhoaPh2_ZiGkgjiTlhg-2" value="Inicio&amp;nbsp;" style="shape=mxgraph.flowchart.terminator;strokeWidth=2;gradientColor=none;gradientDirection=north;fontStyle=0;html=1;" vertex="1" parent="tLhoaPh2_ZiGkgjiTlhg-1">
          <mxGeometry x="330" y="40" width="120" height="30" as="geometry" />
        </mxCell>
        <mxCell id="tLhoaPh2_ZiGkgjiTlhg-3" value="" style="edgeStyle=orthogonalEdgeStyle;rounded=0;orthogonalLoop=1;jettySize=auto;html=1;" edge="1" parent="tLhoaPh2_ZiGkgjiTlhg-1" source="tLhoaPh2_ZiGkgjiTlhg-4" target="tLhoaPh2_ZiGkgjiTlhg-12">
          <mxGeometry relative="1" as="geometry" />
        </mxCell>
        <mxCell id="tLhoaPh2_ZiGkgjiTlhg-4" value="N1, N2" style="shape=mxgraph.flowchart.data;strokeWidth=2;gradientColor=none;gradientDirection=north;fontStyle=0;html=1;" vertex="1" parent="tLhoaPh2_ZiGkgjiTlhg-1">
          <mxGeometry x="310.5" y="110" width="159" height="80" as="geometry" />
        </mxCell>
        <mxCell id="tLhoaPh2_ZiGkgjiTlhg-5" style="fontStyle=1;strokeColor=#003366;strokeWidth=1;html=1;" edge="1" parent="tLhoaPh2_ZiGkgjiTlhg-1" source="tLhoaPh2_ZiGkgjiTlhg-2" target="tLhoaPh2_ZiGkgjiTlhg-4">
          <mxGeometry relative="1" as="geometry" />
        </mxCell>
        <mxCell id="tLhoaPh2_ZiGkgjiTlhg-6" value="" style="edgeStyle=orthogonalEdgeStyle;rounded=0;orthogonalLoop=1;jettySize=auto;html=1;exitX=0.5;exitY=0.9;exitDx=0;exitDy=0;exitPerimeter=0;" edge="1" parent="tLhoaPh2_ZiGkgjiTlhg-1" source="tLhoaPh2_ZiGkgjiTlhg-7" target="tLhoaPh2_ZiGkgjiTlhg-8">
          <mxGeometry relative="1" as="geometry" />
        </mxCell>
        <mxCell id="tLhoaPh2_ZiGkgjiTlhg-7" value="M" style="shape=mxgraph.flowchart.document;strokeWidth=2;gradientColor=none;gradientDirection=north;fontStyle=0;html=1;" vertex="1" parent="tLhoaPh2_ZiGkgjiTlhg-1">
          <mxGeometry x="310" y="450" width="159" height="90" as="geometry" />
        </mxCell>
        <mxCell id="tLhoaPh2_ZiGkgjiTlhg-8" value="Fim" style="shape=mxgraph.flowchart.terminator;strokeWidth=2;gradientColor=none;gradientDirection=north;fontStyle=0;html=1;" vertex="1" parent="tLhoaPh2_ZiGkgjiTlhg-1">
          <mxGeometry x="329.5" y="590" width="120" height="30" as="geometry" />
        </mxCell>
        <mxCell id="tLhoaPh2_ZiGkgjiTlhg-9" value="" style="edgeStyle=orthogonalEdgeStyle;rounded=0;orthogonalLoop=1;jettySize=auto;html=1;" edge="1" parent="tLhoaPh2_ZiGkgjiTlhg-1" source="tLhoaPh2_ZiGkgjiTlhg-10" target="tLhoaPh2_ZiGkgjiTlhg-7">
          <mxGeometry relative="1" as="geometry" />
        </mxCell>
        <mxCell id="tLhoaPh2_ZiGkgjiTlhg-10" value="M = N1 / N2" style="rounded=0;whiteSpace=wrap;html=1;" vertex="1" parent="tLhoaPh2_ZiGkgjiTlhg-1">
          <mxGeometry x="309.5" y="350" width="160" height="60" as="geometry" />
        </mxCell>
        <mxCell id="tLhoaPh2_ZiGkgjiTlhg-11" value="Nao" style="edgeStyle=orthogonalEdgeStyle;rounded=0;orthogonalLoop=1;jettySize=auto;html=1;" edge="1" parent="tLhoaPh2_ZiGkgjiTlhg-1" source="tLhoaPh2_ZiGkgjiTlhg-12" target="tLhoaPh2_ZiGkgjiTlhg-10">
          <mxGeometry relative="1" as="geometry" />
        </mxCell>
        <mxCell id="tLhoaPh2_ZiGkgjiTlhg-12" value="N2 = 0 ?" style="rhombus;whiteSpace=wrap;html=1;" vertex="1" parent="tLhoaPh2_ZiGkgjiTlhg-1">
          <mxGeometry x="339.75" y="220" width="99.5" height="90" as="geometry" />
        </mxCell>
        <mxCell id="tLhoaPh2_ZiGkgjiTlhg-13" value="" style="edgeStyle=orthogonalEdgeStyle;rounded=0;orthogonalLoop=1;jettySize=auto;html=1;exitX=1;exitY=0.5;exitDx=0;exitDy=0;entryX=1;entryY=0.5;entryDx=0;entryDy=0;entryPerimeter=0;" edge="1" parent="tLhoaPh2_ZiGkgjiTlhg-1" source="tLhoaPh2_ZiGkgjiTlhg-12" target="tLhoaPh2_ZiGkgjiTlhg-8">
          <mxGeometry relative="1" as="geometry">
            <mxPoint x="590" y="260" as="sourcePoint" />
            <mxPoint x="590" y="600" as="targetPoint" />
            <Array as="points">
              <mxPoint x="600" y="265" />
              <mxPoint x="600" y="605" />
            </Array>
          </mxGeometry>
        </mxCell>
        <mxCell id="tLhoaPh2_ZiGkgjiTlhg-14" value="Sim" style="edgeLabel;html=1;align=center;verticalAlign=middle;resizable=0;points=[];" vertex="1" connectable="0" parent="tLhoaPh2_ZiGkgjiTlhg-13">
          <mxGeometry x="-0.7425" y="-3" relative="1" as="geometry">
            <mxPoint as="offset" />
          </mxGeometry>
        </mxCell>
        <mxCell id="tLhoaPh2_ZiGkgjiTlhg-15" value="Na próxima vez digite um valor diferente&amp;nbsp; de&amp;nbsp; 0" style="edgeLabel;html=1;align=center;verticalAlign=middle;resizable=0;points=[];" vertex="1" connectable="0" parent="tLhoaPh2_ZiGkgjiTlhg-13">
          <mxGeometry x="-0.0241" relative="1" as="geometry">
            <mxPoint x="10" as="offset" />
          </mxGeometry>
        </mxCell>
        <mxCell id="tLhoaPh2_ZiGkgjiTlhg-16" value="Minha primeira divisão no Fluxograma" style="text;html=1;strokeColor=none;fillColor=none;align=center;verticalAlign=middle;whiteSpace=wrap;rounded=0;" vertex="1" parent="tLhoaPh2_ZiGkgjiTlhg-1">
          <mxGeometry x="260" y="10" width="260" height="20" as="geometry" />
        </mxCell>
      </root>
    </mxGraphModel>
  </diagram>
  <diagram id="BCNwywVEkEQ1F_I4TY9C" name="Media aritmética">
    <mxGraphModel dx="1038" dy="580" grid="1" gridSize="10" guides="1" tooltips="1" connect="1" arrows="1" fold="1" page="1" pageScale="1" pageWidth="827" pageHeight="1169" math="0" shadow="0">
      <root>
        <mxCell id="yRPPhc2EwwSH46nKqoEv-0" />
        <mxCell id="yRPPhc2EwwSH46nKqoEv-1" parent="yRPPhc2EwwSH46nKqoEv-0" />
        <mxCell id="yRPPhc2EwwSH46nKqoEv-2" value="Inicio&amp;nbsp;" style="shape=mxgraph.flowchart.terminator;strokeWidth=2;gradientColor=none;gradientDirection=north;fontStyle=0;html=1;" vertex="1" parent="yRPPhc2EwwSH46nKqoEv-1">
          <mxGeometry x="354" y="70" width="120" height="30" as="geometry" />
        </mxCell>
        <mxCell id="yRPPhc2EwwSH46nKqoEv-3" value="N1, N2, N3" style="shape=mxgraph.flowchart.data;strokeWidth=2;gradientColor=none;gradientDirection=north;fontStyle=0;html=1;" vertex="1" parent="yRPPhc2EwwSH46nKqoEv-1">
          <mxGeometry x="334.5" y="140" width="159" height="80" as="geometry" />
        </mxCell>
        <mxCell id="yRPPhc2EwwSH46nKqoEv-4" style="fontStyle=1;strokeColor=#003366;strokeWidth=1;html=1;" edge="1" parent="yRPPhc2EwwSH46nKqoEv-1" source="yRPPhc2EwwSH46nKqoEv-2" target="yRPPhc2EwwSH46nKqoEv-3">
          <mxGeometry relative="1" as="geometry" />
        </mxCell>
        <mxCell id="yRPPhc2EwwSH46nKqoEv-5" style="fontStyle=1;strokeColor=#003366;strokeWidth=1;html=1;" edge="1" parent="yRPPhc2EwwSH46nKqoEv-1" source="yRPPhc2EwwSH46nKqoEv-3">
          <mxGeometry relative="1" as="geometry">
            <mxPoint x="414" y="260" as="targetPoint" />
          </mxGeometry>
        </mxCell>
        <mxCell id="yRPPhc2EwwSH46nKqoEv-6" value="" style="edgeStyle=orthogonalEdgeStyle;rounded=0;orthogonalLoop=1;jettySize=auto;html=1;exitX=0.5;exitY=0.9;exitDx=0;exitDy=0;exitPerimeter=0;" edge="1" parent="yRPPhc2EwwSH46nKqoEv-1" source="yRPPhc2EwwSH46nKqoEv-7" target="yRPPhc2EwwSH46nKqoEv-8">
          <mxGeometry relative="1" as="geometry" />
        </mxCell>
        <mxCell id="yRPPhc2EwwSH46nKqoEv-7" value="M" style="shape=mxgraph.flowchart.document;strokeWidth=2;gradientColor=none;gradientDirection=north;fontStyle=0;html=1;" vertex="1" parent="yRPPhc2EwwSH46nKqoEv-1">
          <mxGeometry x="334.5" y="360" width="159" height="90" as="geometry" />
        </mxCell>
        <mxCell id="yRPPhc2EwwSH46nKqoEv-8" value="Fim" style="shape=mxgraph.flowchart.terminator;strokeWidth=2;gradientColor=none;gradientDirection=north;fontStyle=0;html=1;" vertex="1" parent="yRPPhc2EwwSH46nKqoEv-1">
          <mxGeometry x="354" y="500" width="120" height="30" as="geometry" />
        </mxCell>
        <mxCell id="yRPPhc2EwwSH46nKqoEv-9" value="" style="edgeStyle=orthogonalEdgeStyle;rounded=0;orthogonalLoop=1;jettySize=auto;html=1;" edge="1" parent="yRPPhc2EwwSH46nKqoEv-1" source="yRPPhc2EwwSH46nKqoEv-10" target="yRPPhc2EwwSH46nKqoEv-7">
          <mxGeometry relative="1" as="geometry" />
        </mxCell>
        <mxCell id="yRPPhc2EwwSH46nKqoEv-10" value="M = (N1 * N2 * N3) / 3" style="rounded=0;whiteSpace=wrap;html=1;" vertex="1" parent="yRPPhc2EwwSH46nKqoEv-1">
          <mxGeometry x="334" y="260" width="160" height="60" as="geometry" />
        </mxCell>
        <mxCell id="yRPPhc2EwwSH46nKqoEv-11" value="Media aritmética no Fluxograma" style="text;html=1;strokeColor=none;fillColor=none;align=center;verticalAlign=middle;whiteSpace=wrap;rounded=0;" vertex="1" parent="yRPPhc2EwwSH46nKqoEv-1">
          <mxGeometry x="260" y="10" width="260" height="20" as="geometry" />
        </mxCell>
      </root>
    </mxGraphModel>
  </diagram>
</mxfile>
